<mxfile host="app.diagrams.net" modified="2024-01-05T19:18:21.575Z" agent="Mozilla/5.0 (Windows NT 10.0; Win64; x64) AppleWebKit/537.36 (KHTML, like Gecko) Chrome/120.0.0.0 Safari/537.36" etag="V6QtBKT7eXpjD8yF68Ko" version="22.1.17" type="github">
  <diagram id="C5RBs43oDa-KdzZeNtuy" name="Page-1">
    <mxGraphModel dx="1050" dy="522" grid="1" gridSize="10" guides="1" tooltips="1" connect="1" arrows="1" fold="1" page="1" pageScale="1" pageWidth="827" pageHeight="1169" math="0" shadow="0">
      <root>
        <mxCell id="WIyWlLk6GJQsqaUBKTNV-0" />
        <mxCell id="WIyWlLk6GJQsqaUBKTNV-1" parent="WIyWlLk6GJQsqaUBKTNV-0" />
        <mxCell id="WIyWlLk6GJQsqaUBKTNV-2" value="" style="rounded=0;html=1;jettySize=auto;orthogonalLoop=1;fontSize=11;endArrow=block;endFill=0;endSize=8;strokeWidth=1;shadow=0;labelBackgroundColor=none;edgeStyle=orthogonalEdgeStyle;" parent="WIyWlLk6GJQsqaUBKTNV-1" edge="1">
          <mxGeometry relative="1" as="geometry">
            <mxPoint x="220" y="120" as="sourcePoint" />
            <mxPoint x="220" y="200" as="targetPoint" />
          </mxGeometry>
        </mxCell>
        <mxCell id="Xilps3Jjmm4mwuuj0VUE-0" value="DEBUT" style="ellipse;whiteSpace=wrap;html=1;" vertex="1" parent="WIyWlLk6GJQsqaUBKTNV-1">
          <mxGeometry x="160" y="40" width="120" height="80" as="geometry" />
        </mxCell>
        <mxCell id="Xilps3Jjmm4mwuuj0VUE-5" value="" style="edgeStyle=orthogonalEdgeStyle;rounded=0;orthogonalLoop=1;jettySize=auto;html=1;" edge="1" parent="WIyWlLk6GJQsqaUBKTNV-1" source="Xilps3Jjmm4mwuuj0VUE-2" target="Xilps3Jjmm4mwuuj0VUE-3">
          <mxGeometry relative="1" as="geometry">
            <Array as="points">
              <mxPoint x="220" y="280" />
              <mxPoint x="220" y="280" />
            </Array>
          </mxGeometry>
        </mxCell>
        <mxCell id="Xilps3Jjmm4mwuuj0VUE-2" value="On récupère le résultat de la barre de recherche" style="rounded=0;whiteSpace=wrap;html=1;" vertex="1" parent="WIyWlLk6GJQsqaUBKTNV-1">
          <mxGeometry x="150" y="200" width="140" height="60" as="geometry" />
        </mxCell>
        <mxCell id="Xilps3Jjmm4mwuuj0VUE-9" value="" style="edgeStyle=orthogonalEdgeStyle;rounded=0;orthogonalLoop=1;jettySize=auto;html=1;" edge="1" parent="WIyWlLk6GJQsqaUBKTNV-1" source="Xilps3Jjmm4mwuuj0VUE-3" target="Xilps3Jjmm4mwuuj0VUE-7">
          <mxGeometry relative="1" as="geometry" />
        </mxCell>
        <mxCell id="Xilps3Jjmm4mwuuj0VUE-3" value="On parcours la liste de toutes les recettes" style="shape=parallelogram;perimeter=parallelogramPerimeter;whiteSpace=wrap;html=1;fixedSize=1;" vertex="1" parent="WIyWlLk6GJQsqaUBKTNV-1">
          <mxGeometry x="87.5" y="320" width="265" height="60" as="geometry" />
        </mxCell>
        <mxCell id="Xilps3Jjmm4mwuuj0VUE-12" value="" style="edgeStyle=orthogonalEdgeStyle;rounded=0;orthogonalLoop=1;jettySize=auto;html=1;" edge="1" parent="WIyWlLk6GJQsqaUBKTNV-1" source="Xilps3Jjmm4mwuuj0VUE-7" target="Xilps3Jjmm4mwuuj0VUE-11">
          <mxGeometry relative="1" as="geometry" />
        </mxCell>
        <mxCell id="Xilps3Jjmm4mwuuj0VUE-7" value="Est-ce que le nom de la recette comporte la recherche de l&#39;utilisateur ?" style="rhombus;whiteSpace=wrap;html=1;" vertex="1" parent="WIyWlLk6GJQsqaUBKTNV-1">
          <mxGeometry x="125" y="460" width="190" height="180" as="geometry" />
        </mxCell>
        <mxCell id="Xilps3Jjmm4mwuuj0VUE-10" value="Il y a encore des recettes à parcourir" style="text;html=1;strokeColor=none;fillColor=none;align=center;verticalAlign=middle;whiteSpace=wrap;rounded=0;" vertex="1" parent="WIyWlLk6GJQsqaUBKTNV-1">
          <mxGeometry x="220" y="400" width="160" height="30" as="geometry" />
        </mxCell>
        <mxCell id="Xilps3Jjmm4mwuuj0VUE-24" style="edgeStyle=orthogonalEdgeStyle;rounded=0;orthogonalLoop=1;jettySize=auto;html=1;exitX=0;exitY=0.5;exitDx=0;exitDy=0;entryX=0;entryY=0.5;entryDx=0;entryDy=0;" edge="1" parent="WIyWlLk6GJQsqaUBKTNV-1" source="Xilps3Jjmm4mwuuj0VUE-11" target="Xilps3Jjmm4mwuuj0VUE-3">
          <mxGeometry relative="1" as="geometry">
            <Array as="points">
              <mxPoint x="10" y="760" />
              <mxPoint x="10" y="350" />
            </Array>
          </mxGeometry>
        </mxCell>
        <mxCell id="Xilps3Jjmm4mwuuj0VUE-11" value="Afficher la recette" style="rounded=0;whiteSpace=wrap;html=1;" vertex="1" parent="WIyWlLk6GJQsqaUBKTNV-1">
          <mxGeometry x="160" y="730" width="120" height="60" as="geometry" />
        </mxCell>
        <mxCell id="Xilps3Jjmm4mwuuj0VUE-13" value="OUI" style="text;html=1;strokeColor=none;fillColor=none;align=center;verticalAlign=middle;whiteSpace=wrap;rounded=0;" vertex="1" parent="WIyWlLk6GJQsqaUBKTNV-1">
          <mxGeometry x="210" y="660" width="60" height="30" as="geometry" />
        </mxCell>
        <mxCell id="Xilps3Jjmm4mwuuj0VUE-25" value="" style="endArrow=classic;html=1;rounded=0;exitX=0;exitY=0.5;exitDx=0;exitDy=0;" edge="1" parent="WIyWlLk6GJQsqaUBKTNV-1" source="Xilps3Jjmm4mwuuj0VUE-7">
          <mxGeometry width="50" height="50" relative="1" as="geometry">
            <mxPoint x="190" y="600" as="sourcePoint" />
            <mxPoint x="10" y="550" as="targetPoint" />
          </mxGeometry>
        </mxCell>
        <mxCell id="Xilps3Jjmm4mwuuj0VUE-26" value="NON" style="text;html=1;strokeColor=none;fillColor=none;align=center;verticalAlign=middle;whiteSpace=wrap;rounded=0;" vertex="1" parent="WIyWlLk6GJQsqaUBKTNV-1">
          <mxGeometry x="50" y="520" width="60" height="30" as="geometry" />
        </mxCell>
      </root>
    </mxGraphModel>
  </diagram>
</mxfile>
